<mxfile host="app.diagrams.net" modified="2022-06-30T02:52:29.804Z" agent="5.0 (Windows)" etag="Z49S4zHic6DIzLVzAUOg" version="20.0.4" type="github">
  <diagram id="4cvPbMxtPAEpqsCtfiDJ" name="Page-1">
    <mxGraphModel dx="2062" dy="1132" grid="1" gridSize="10" guides="1" tooltips="1" connect="1" arrows="1" fold="1" page="1" pageScale="1" pageWidth="1654" pageHeight="2336" math="0" shadow="0">
      <root>
        <mxCell id="0" />
        <mxCell id="1" parent="0" />
        <mxCell id="h97FTamRR3yWaKN5MBpX-4" style="edgeStyle=orthogonalEdgeStyle;rounded=0;orthogonalLoop=1;jettySize=auto;html=1;entryX=0;entryY=0.5;entryDx=0;entryDy=0;entryPerimeter=0;" edge="1" parent="1" source="h97FTamRR3yWaKN5MBpX-1" target="h97FTamRR3yWaKN5MBpX-2">
          <mxGeometry relative="1" as="geometry" />
        </mxCell>
        <mxCell id="h97FTamRR3yWaKN5MBpX-1" value="" style="verticalLabelPosition=bottom;html=1;verticalAlign=top;strokeWidth=1;align=center;outlineConnect=0;dashed=0;outlineConnect=0;shape=mxgraph.aws3d.end_user;strokeColor=none;fillColor=#777777;aspect=fixed;" vertex="1" parent="1">
          <mxGeometry x="60" y="410" width="49" height="100.46" as="geometry" />
        </mxCell>
        <mxCell id="h97FTamRR3yWaKN5MBpX-2" value="&lt;div&gt;&lt;b&gt;Dev.asys.id&lt;/b&gt;&lt;/div&gt;" style="outlineConnect=0;dashed=0;verticalLabelPosition=bottom;verticalAlign=top;align=center;html=1;shape=mxgraph.aws3.ec2;fillColor=#F58534;gradientColor=none;" vertex="1" parent="1">
          <mxGeometry x="290" y="414" width="76.5" height="93" as="geometry" />
        </mxCell>
      </root>
    </mxGraphModel>
  </diagram>
</mxfile>
